<?xml version="1.0" encoding="UTF-8"?>
<svg viewBox="0 0 120 120" xmlns="http://www.w3.org/2000/svg">
 <path d="m0 60v-60h120v120h-120v-60z" fill="#fb0000"/>
 <path d="m0 100.5v-19.5h19.071c15.195 0 19.362-0.29035 20.5-1.4286s1.4286-5.2381 1.4286-20v-18.571h40v-41h19.5c10.725 0 19.5 0.33317 19.5 0.74038s-8.4331 9.1822-18.74 19.5l-18.74 18.76h18.74c11.827 0 18.74 0.36891 18.74 1s-7.1667 1-19.5 1h-19.5v38h19.5c12.333 0 19.5 0.36752 19.5 1s-7.1667 1-19.5 1h-19.5v19.5c0 12.333-0.36752 19.5-1 19.5s-1-7.1667-1-19.5v-19.5h-38v19.5c0 12.333-0.36752 19.5-1 19.5s-1-6.8987-1-18.696v-18.696l-3.3609 3.2575-3.3609 3.2575 1.927 3.6886c3.6066 6.9038 1.3385 15.454-5.4424 20.516-3.8088 2.8437-11.387 3.2616-15.947 0.87925l-3.6848-1.925-3.7682 3.859c-2.0725 2.1224-4.1268 3.859-4.5652 3.859s-0.79705-8.775-0.79705-19.5zm30.437-12.602c-0.25162-0.40714-2.4584-1.5044-4.904-2.4384-7.8186-2.986-16.183 0.35293-19.569 7.8113-2.4365 5.3673-2.4169 8.1338 0.09667 13.675l2.0166 4.4453 11.409-11.376c6.2747-6.2569 11.203-11.709 10.951-12.117zm48.563-27.137v-18.24l-18 17.979c-9.9 9.8885-18 18.096-18 18.24s8.1 0.26042 18 0.26042h18v-18.24zm-25.55 53.833c-10.09-4.3949-12.473-17.806-4.5681-25.711 11.235-11.235 29.646-1.1719 26.689 14.588-1.7684 9.4263-13.023 15.086-22.121 11.123zm40 0c-10.09-4.3949-12.473-17.806-4.5681-25.711 11.235-11.235 29.646-1.1719 26.689 14.588-1.7684 9.4263-13.023 15.086-22.121 11.123zm-93.45-54.593v-19h39v38h-39v-19zm93.45 14.593c-10.09-4.3949-12.473-17.806-4.5681-25.711 11.235-11.235 29.646-1.1719 26.689 14.588-1.7684 9.4263-13.023 15.086-22.121 11.123zm-93.45-55.093v-19.5h39v39h-39v-19.5zm41 0v-19.5h38v39h-38v-19.5zm26.038 14.25c4.803-2.422 8.9619-8.8028 8.9619-13.75s-4.1588-11.328-8.9619-13.75c-5.6115-2.8297-8.4647-2.8297-14.076 0-4.803 2.422-8.9619 8.8028-8.9619 13.75s4.1588 11.328 8.9619 13.75c2.454 1.2375 5.6212 2.25 7.0381 2.25s4.5841-1.0125 7.0381-2.25z" fill="#610000"/>
 <path d="m0 100.5v-19.5h19.071c15.195 0 19.362-0.29035 20.5-1.4286s1.4286-5.2381 1.4286-20v-18.571h40v-41h19.5c10.725 0 19.5 0.27 19.5 0.6s-8.3932 8.9925-18.652 19.25l-18.651 18.65 18.651 0.27206c11.302 0.16486 18.652 0.65743 18.652 1.25 0 0.60381-7.46 0.97794-19.5 0.97794h-19.5v38h19.5c12.333 0 19.5 0.36752 19.5 1s-7.1667 1-19.5 1h-19.5v19.5c0 12.333-0.36752 19.5-1 19.5s-1-7.1667-1-19.5v-19.5h-38v19.5c0 12.04-0.37412 19.5-0.97794 19.5-0.59228 0-1.0852-7.3085-1.25-18.533l-0.27206-18.533-3.5 2.9389-3.5 2.9389 1.9423 3.3238c4.1556 7.1113 1.5265 17.109-5.6031 21.306-4.2543 2.5048-11.375 2.5356-15.554 0.0673l-3.1742-1.875-3.9393 4.1827c-2.1666 2.3005-4.2167 4.1827-4.5557 4.1827s-0.6164-8.775-0.6164-19.5zm20.234-0.23295c5.9215-5.9031 10.766-11.085 10.766-11.515 0-1.8023-6.7325-4.7451-10.864-4.7486-8.9439-0.00766-16.14 7.1885-16.132 16.132 0.00351 4.095 2.9414 10.864 4.7152 10.864 0.4116 0 5.5932-4.8298 11.515-10.733zm58.766-39.267c0-9.9-0.27581-18-0.61292-18s-8.6481 8.1-18.469 18l-17.856 18h36.938v-18zm-23.685 53.898c-4.3849-1.2687-9.0557-6.2205-10.329-10.951-4.0625-15.087 14.868-25.94 25.937-14.871 8.2974 8.2974 4.547 22.754-6.7144 25.882-4.2616 1.1836-4.6011 1.1813-8.8934-0.0607zm40 0c-4.3849-1.2687-9.0557-6.2205-10.329-10.951-4.0625-15.087 14.868-25.94 25.937-14.871 8.2974 8.2974 4.547 22.754-6.7144 25.882-4.2616 1.1836-4.6011 1.1813-8.8934-0.0607zm-95.315-54.898v-19h39v38h-39v-19zm95.315 14.898c-4.3849-1.2688-9.0557-6.2205-10.329-10.951-4.0625-15.087 14.868-25.94 25.937-14.871 8.2974 8.2974 4.547 22.754-6.7144 25.882-4.2616 1.1836-4.6011 1.1813-8.8934-0.06071zm-95.315-55.398v-19.5h39v39h-39v-19.5zm41 0v-19.5h38v39h-38v-19.5zm27.078 14.226c10.64-7.1703 10.64-20.282 0-27.452-9.7003-6.537-24.078 1.5171-24.078 13.488 0 12.509 14.102 20.688 24.078 13.964z" fill="#010000"/>
</svg>
